<?xml version="1.0" encoding="UTF-8"?>
<svg version="1.1" xmlns="http://www.w3.org/2000/svg" width="522" height="478">
<path d="M0 0 C2.93937019 1.34752945 5.89812195 2.63765759 8.86669922 3.91894531 C14.3933541 6.30513081 19.83947126 8.74805672 25.1953125 11.50390625 C30.33661089 14.13043912 35.5836504 16.21485102 40.98828125 18.234375 C45.07664404 19.78403903 49.0398613 21.54653011 53.0078125 23.37890625 C53.96945312 23.81976563 54.93109375 24.260625 55.921875 24.71484375 C60.56531118 26.85014652 65.20327524 28.99611334 69.82421875 31.1796875 C75.88028249 34.0368838 81.93028808 36.80684454 88.17578125 39.23046875 C92.03496374 40.79543379 95.8308955 42.49280463 99.6328125 44.19140625 C100.40681396 44.53719727 101.18081543 44.88298828 101.97827148 45.23925781 C103.55130882 45.9422949 105.12430681 46.64542004 106.69726562 47.34863281 C110.25339752 48.93431293 113.81678171 50.50313779 117.3828125 52.06640625 C118.04055664 52.35620361 118.69830078 52.64600098 119.37597656 52.94458008 C123.3449154 54.68435475 127.34705317 56.29857702 131.3828125 57.87890625 C143.35595073 62.83106138 152.53511545 71.19588016 159.0078125 82.37890625 C176.530847 124.66275036 156.2522829 200.75596228 140.11791992 241.50463867 C139.1357409 244.04767664 138.25941503 246.59067871 137.4453125 249.19140625 C136.28749669 252.76892702 134.76614807 255.98467601 133.02734375 259.3125 C131.96527661 261.46511883 131.1082907 263.63469284 130.2578125 265.87890625 C119.24867786 293.74048545 101.47471766 319.18701882 81.68359375 341.48046875 C80.54109718 342.77476556 79.41400197 344.08278235 78.30078125 345.40234375 C74.91272295 349.39459304 71.41035994 352.96936523 67.41015625 356.34765625 C65.5646064 357.90812116 63.75238875 359.48943847 61.94921875 361.09765625 C53.44419958 368.62493112 44.50831889 375.1657635 35.0078125 381.37890625 C33.98300781 382.04921875 32.95820313 382.71953125 31.90234375 383.41015625 C29.28618746 385.09276171 26.65404664 386.74410326 24.0078125 388.37890625 C23.19183594 388.889375 22.37585938 389.39984375 21.53515625 389.92578125 C16.27341311 393.16121126 10.89856833 396.02678726 5.34765625 398.734375 C2.9037708 399.93773848 0.48644099 401.16603124 -1.92578125 402.4296875 C-15.3574513 409.42099073 -27.37350654 414.06956629 -42.5546875 409.69140625 C-48.33760776 407.75009496 -53.62533746 405.25180135 -58.9921875 402.37890625 C-60.57405959 401.60507864 -62.15742907 400.83430546 -63.7421875 400.06640625 C-70.31405069 396.78047466 -76.64783316 393.07855861 -82.9921875 389.37890625 C-83.88164062 388.86199219 -84.77109375 388.34507812 -85.6875 387.8125 C-98.95700915 379.98306293 -98.95700915 379.98306293 -104.9921875 375.37890625 C-104.9921875 374.71890625 -104.9921875 374.05890625 -104.9921875 373.37890625 C-106.0440625 373.03859375 -106.0440625 373.03859375 -107.1171875 372.69140625 C-109.86949589 371.43491764 -111.85595431 369.98273244 -114.12109375 368 C-117.4383651 365.12595488 -120.89104312 362.41358711 -124.30859375 359.66015625 C-127.02090986 357.35449016 -129.5020012 354.92122206 -131.9921875 352.37890625 C-132.69859375 351.69570313 -133.405 351.0125 -134.1328125 350.30859375 C-139.1154304 345.45515483 -143.5913981 340.36246152 -147.9375 334.93359375 C-149.59977496 332.86681082 -151.29752847 330.86402104 -153.0546875 328.87890625 C-159.18428507 321.76721846 -164.37395564 313.94601893 -169.33984375 305.99609375 C-170.86195588 303.58518329 -172.4435194 301.23079319 -174.0546875 298.87890625 C-183.98478737 283.98375644 -191.25758951 266.9213554 -197.9921875 250.37890625 C-198.46011719 249.23421875 -198.92804688 248.08953125 -199.41015625 246.91015625 C-216.25757603 203.91084356 -223.16049042 157.70171689 -223.4921875 111.69140625 C-223.50281219 110.90575287 -223.51343689 110.12009949 -223.52438354 109.31063843 C-223.67797463 94.63813828 -221.51940558 81.09596963 -210.88671875 70.2265625 C-204.66886272 64.47959402 -198.3678908 60.27837223 -190.5390625 57.07421875 C-189.47840576 56.63730713 -188.41774902 56.20039551 -187.32495117 55.75024414 C-185.67523315 55.07143188 -185.67523315 55.07143188 -183.9921875 54.37890625 C-165.67276544 46.77459043 -165.67276544 46.77459043 -147.60546875 38.59765625 C-145.07516599 37.41760474 -142.51855496 36.31508645 -139.94946289 35.22265625 C-136.12865014 33.57556521 -132.3453671 31.84391204 -128.5546875 30.12890625 C-122.33994756 27.32436113 -116.11794813 24.53977655 -109.8671875 21.81640625 C-104.31701463 19.39783287 -98.77491377 16.96216092 -93.2421875 14.50390625 C-92.12324097 14.00685181 -92.12324097 14.00685181 -90.98168945 13.49975586 C-87.00643446 11.73057458 -83.03706072 9.94916514 -79.07421875 8.15234375 C-30.15923577 -14.02448427 -30.15923577 -14.02448427 0 0 Z M-109.1171875 142.19140625 C-110.42348162 143.90954938 -111.71617462 145.63815605 -112.9921875 147.37890625 C-113.49105469 148.02859375 -113.98992187 148.67828125 -114.50390625 149.34765625 C-121.64108555 159.4640185 -122.12673512 172.78291934 -120.55859375 184.6640625 C-117.68746595 199.62602661 -108.66337724 211.04195445 -96.9921875 220.37890625 C-95.31258834 222.03253929 -93.64757587 223.7010371 -91.9921875 225.37890625 C-90.70523735 226.66918732 -90.70523735 226.66918732 -89.39228821 227.98553467 C-88.46788437 228.91295471 -87.54348053 229.84037476 -86.59106445 230.79589844 C-81.38089743 236.0223332 -76.16824409 241.24628055 -70.95412922 246.4687767 C-67.80558333 249.62256558 -64.6579901 252.77729383 -61.51245117 255.93408203 C-58.46144418 258.99592593 -55.40802566 262.05534543 -52.35289574 265.11307526 C-51.1897806 266.27804015 -50.02754695 267.44388581 -48.86620522 268.61061859 C-47.24815019 270.23589665 -45.62702941 271.85805486 -44.00512695 273.47949219 C-43.08310989 274.40372986 -42.16109283 275.32796753 -41.21113586 276.2802124 C-37.78383571 279.52177217 -35.52339401 279.66284098 -30.8671875 279.87890625 C-29.77148438 279.95109375 -28.67578125 280.02328125 -27.546875 280.09765625 C-18.35130676 278.23833256 -10.91819071 267.43541101 -4.44921875 260.93359375 C-3.3518392 259.83434379 -2.25423471 258.73531835 -1.15641785 257.63650513 C1.71254627 254.7637529 4.57849632 251.88801257 7.44378662 249.01159668 C10.3558864 246.08924767 13.27083091 243.16973925 16.18554688 240.25 C21.31334931 235.11267129 26.43867805 229.97288625 31.56217957 224.83126831 C32.36923843 224.02198883 33.1762973 223.21270935 34.0078125 222.37890625 C34.87727005 221.49751984 35.7467276 220.61613342 36.64253235 219.70803833 C39.0078125 217.37890625 39.0078125 217.37890625 41.8828125 215.06640625 C48.19942806 209.78371242 52.39059081 204.18042593 55.8828125 196.75390625 C56.1811499 196.12049316 56.4794873 195.48708008 56.78686523 194.83447266 C61.2662673 184.84226146 61.8336955 170.24531912 58.890625 159.55078125 C53.95100384 147.39843892 45.71482539 136.55469282 34.0078125 130.37890625 C19.10168102 124.10345993 4.83782989 123.67874666 -10.43359375 128.89453125 C-13.99196223 130.37881229 -16.86323836 132.14202141 -19.9921875 134.37890625 C-21.0028125 135.01828125 -22.0134375 135.65765625 -23.0546875 136.31640625 C-26.05290132 138.4215351 -28.48120919 140.72022334 -30.9921875 143.37890625 C-31.5284375 142.63640625 -32.0646875 141.89390625 -32.6171875 141.12890625 C-35.18122156 138.16002471 -37.66753973 136.44018787 -40.9921875 134.37890625 C-41.90613281 133.73566406 -42.82007813 133.09242188 -43.76171875 132.4296875 C-64.16195291 119.47911563 -93.67890026 123.27079858 -109.1171875 142.19140625 Z " fill="#6F0EAE" transform="translate(290.9921875,26.62109375)"/>
<path d="M0 0 C13.60410869 25.77296854 -0.8156388 78.62187739 -6.37890625 106.3828125 C-6.51219833 107.05121658 -6.64549042 107.71962067 -6.78282166 108.40827942 C-7.65971604 112.67836941 -8.75932644 116.8253239 -10 121 C-10.33 121 -10.66 121 -11 121 C-9.12345679 99.12345679 -9.12345679 99.12345679 -7 97 C-6.96854193 94.70356092 -7.0680779 92.42349871 -7.16015625 90.12890625 C-7 88 -7 88 -5 86 C-4.46128058 84.01167636 -4.46128058 84.01167636 -4.18359375 81.6953125 C-4.05919922 80.79941406 -3.93480469 79.90351563 -3.80664062 78.98046875 C-3.68482422 78.03816406 -3.56300781 77.09585938 -3.4375 76.125 C-3.31181641 75.25230469 -3.18613281 74.37960938 -3.05664062 73.48046875 C-0.72253368 56.05409963 -0.79427993 38.30066021 -0.4375 20.75 C-0.39414026 18.72134859 -0.35052163 16.6927027 -0.30664062 14.6640625 C-0.20145875 9.77609976 -0.09972395 4.88807701 0 0 Z " fill="#BB92D2" transform="translate(451,116)"/>
<path d="M0 0 C1.22099781 3.51113565 0.76439622 5.6641509 -0.328125 9.17578125 C-0.78638672 10.66561523 -0.78638672 10.66561523 -1.25390625 12.18554688 C-1.58261719 13.21744141 -1.91132813 14.24933594 -2.25 15.3125 C-2.56324219 16.33279297 -2.87648438 17.35308594 -3.19921875 18.40429688 C-4.86707049 23.75733971 -6.72231699 28.88013618 -9 34 C-9.50185517 35.47162363 -9.98478959 36.95002294 -10.4375 38.4375 C-11.64088817 42.14794686 -13.17721465 45.48242205 -14.98046875 48.93359375 C-16.04253589 51.08621258 -16.8995218 53.25578659 -17.75 55.5 C-19.63270757 60.31220056 -21.83704995 64.93324861 -24.125 69.5625 C-24.47401367 70.27792969 -24.82302734 70.99335938 -25.18261719 71.73046875 C-27.75982409 76.87991204 -27.75982409 76.87991204 -30 78 C-28.39323547 72.54406329 -25.94969106 67.6697853 -23.375 62.625 C-22.95476562 61.79355469 -22.53453125 60.96210938 -22.1015625 60.10546875 C-21.07133925 58.06843641 -20.03741179 56.03337811 -19 54 C-19.33 53.67 -19.66 53.34 -20 53 C-20.99 53.495 -20.99 53.495 -22 54 C-22.125 47.375 -22.125 47.375 -21 44 C-18.525 43.505 -18.525 43.505 -16 43 C-15.82984375 42.46632813 -15.6596875 41.93265625 -15.484375 41.3828125 C-13.82284287 36.27448499 -11.95399571 31.3094782 -9.8671875 26.359375 C-8.97076142 23.92044998 -8.44423741 21.55663162 -8 19 C-7.01 19 -6.02 19 -5 19 C-4.83564453 18.07380859 -4.83564453 18.07380859 -4.66796875 17.12890625 C-3.5622734 11.22287499 -2.04638565 5.64802441 0 0 Z " fill="#9E5FC2" transform="translate(439,237)"/>
<path d="M0 0 C4.41908947 0.56386008 7.87512725 1.68220467 11.875 3.625 C16.89918625 6.01965206 21.95016771 8.30036622 27.0625 10.5 C33.83693774 13.43069839 40.44160098 16.6090096 47 20 C46.01 20.66 45.02 21.32 44 22 C41.3125 21.125 41.3125 21.125 39 20 C39 19.34 39 18.68 39 18 C38.01 18.33 37.02 18.66 36 19 C34.09765625 18.29296875 34.09765625 18.29296875 32.0625 17.1875 C31.39347656 16.83042969 30.72445313 16.47335938 30.03515625 16.10546875 C29.36355469 15.74066406 28.69195312 15.37585937 28 15 C24.76150262 13.24404176 22.71436877 12.79364618 19 13 C18.34 11.35 17.68 9.7 17 8 C16.030625 7.9175 15.06125 7.835 14.0625 7.75 C9.42760408 7.08651797 4.97951394 5.47652155 1 3 C0.67 2.01 0.34 1.02 0 0 Z " fill="#6C24A0" transform="translate(275,21)"/>
<path d="M0 0 C0.66 0.33 1.32 0.66 2 1 C1.27683594 1.63615234 1.27683594 1.63615234 0.5390625 2.28515625 C-3.82104256 6.33382524 -5.92107928 9.12587608 -7 15 C-7.66 15 -8.32 15 -9 15 C-9.2165625 16.175625 -9.2165625 16.175625 -9.4375 17.375 C-10 20 -10 20 -11 22 C-11.66 22 -12.32 22 -13 22 C-14.14352325 29.0698779 -14.15240391 36.09933086 -14.13037109 43.24389648 C-14.1250391 45.29743934 -14.1303268 47.3507609 -14.13671875 49.40429688 C-14.13984158 56.18662933 -13.92782969 62.86882671 -13.22265625 69.61645508 C-12.90747766 72.99045567 -12.90394899 76.29884752 -12.9375 79.6875 C-12.94652344 80.88761719 -12.95554687 82.08773437 -12.96484375 83.32421875 C-12.98224609 84.64873047 -12.98224609 84.64873047 -13 86 C-13.33 86 -13.66 86 -14 86 C-15.76612084 73.73176774 -16.26421526 61.47235531 -16.35449219 49.09283447 C-16.36802481 47.42312633 -16.38838808 45.75345775 -16.41601562 44.08392334 C-16.64525888 29.01155663 -14.85419439 15.69936749 -4.28125 4.1171875 C-2.89111378 2.70737955 -1.45086397 1.34723083 0 0 Z " fill="#D3AEE9" transform="translate(84,93)"/>
<path d="M0 0 C1.22099781 3.51113565 0.76439622 5.6641509 -0.328125 9.17578125 C-0.78638672 10.66561523 -0.78638672 10.66561523 -1.25390625 12.18554688 C-1.74697266 13.73338867 -1.74697266 13.73338867 -2.25 15.3125 C-2.56324219 16.33279297 -2.87648438 17.35308594 -3.19921875 18.40429688 C-4.8670869 23.75739236 -6.72168639 28.88034125 -9 34 C-9.52292832 35.51310277 -10.0268186 37.03311012 -10.5 38.5625 C-11.6881656 42.23386884 -13.16629927 45.59455578 -15 49 C-15.33 48.34 -15.66 47.68 -16 47 C-15.28635848 45.13093888 -14.5678284 43.26359175 -13.82421875 41.40625 C-12.93025562 38.79638608 -12.44711916 36.28343029 -12 33.5625 C-11.16467922 28.49394338 -9.78175023 23.81072562 -8 19 C-7.01 19 -6.02 19 -5 19 C-4.89042969 18.38253906 -4.78085937 17.76507813 -4.66796875 17.12890625 C-3.5622734 11.22287499 -2.04638565 5.64802441 0 0 Z " fill="#BC94D4" transform="translate(439,237)"/>
<path d="M0 0 C6.78361471 5.15413024 6.78361471 5.15413024 7.6875 8.6875 C7.790625 9.450625 7.89375 10.21375 8 11 C8.66 11.474375 9.32 11.94875 10 12.4375 C12 14 12 14 12.75 17.1875 C12.87375 18.5796875 12.87375 18.5796875 13 20 C13.33 19.34 13.66 18.68 14 18 C14.66 18 15.32 18 16 18 C16.33 19.98 16.66 21.96 17 24 C17.66 24 18.32 24 19 24 C19 24.66 19 25.32 19 26 C19.66 26 20.32 26 21 26 C23.95303159 29.07115285 24.52651586 31.8333396 25 36 C20.95963281 33.08195703 18.64510442 30.2010482 16 26 C14.90152045 24.43349658 13.79675764 22.87138991 12.6875 21.3125 C2.48842555 6.7612343 2.48842555 6.7612343 0 0 Z " fill="#AD7DCE" transform="translate(116,322)"/>
<path d="M0 0 C3.11794696 3.11794696 4.22524673 5.8436069 4.37890625 10.22265625 C4.41306641 11.00833984 4.44722656 11.79402344 4.48242188 12.60351562 C4.50884766 13.41498047 4.53527344 14.22644531 4.5625 15.0625 C4.6225422 16.67852949 4.68619709 18.29442983 4.75390625 19.91015625 C4.77783447 20.62308838 4.8017627 21.33602051 4.82641602 22.07055664 C4.94512413 24.21862232 4.94512413 24.21862232 6 27 C6.06802967 28.72795352 6.08495645 30.45835365 6.0625 32.1875 C6.05347656 33.08855469 6.04445313 33.98960937 6.03515625 34.91796875 C6.02355469 35.60503906 6.01195313 36.29210937 6 37 C5.67 37 5.34 37 5 37 C4.15144773 32.71120018 3.32397608 28.41858345 2.5 24.125 C2.26152344 22.92101562 2.02304688 21.71703125 1.77734375 20.4765625 C0.4619401 13.56129761 -0.36598855 7.0412131 0 0 Z " fill="#AC7BCC" transform="translate(71,182)"/>
<path d="M0 0 C6.96050253 0.38669459 11.9394075 2.63438409 18 6 C14.47124082 7.17625306 13.67440258 6.72990997 10.25 5.5625 C-3.26113054 1.74529492 -14.25725924 4.48602099 -27 9 C-28.32729511 9.35661824 -29.65780191 9.70437662 -31 10 C-30.67 9.01 -30.34 8.02 -30 7 C-27.20918423 5.95608405 -24.55870071 5.1232191 -21.6875 4.375 C-20.87748535 4.15626221 -20.0674707 3.93752441 -19.23291016 3.7121582 C-12.85406501 2.06023329 -6.59944106 1.14234089 0 1 C0 0.67 0 0.34 0 0 Z " fill="#D9B5EB" transform="translate(304,149)"/>
<path d="M0 0 C0.66 0.33 1.32 0.66 2 1 C-3.53984932 4.44429263 -8.93599342 7.55312015 -15 10 C-16.35351562 10.65548828 -16.35351562 10.65548828 -17.734375 11.32421875 C-18.70890625 11.79472656 -19.6834375 12.26523437 -20.6875 12.75 C-21.59886719 13.19859375 -22.51023437 13.6471875 -23.44921875 14.109375 C-26.20375777 15.0711436 -27.35443353 15.17049894 -30 14 C-30.33 13.34 -30.66 12.68 -31 12 C-21.58997722 8.74031891 -21.58997722 8.74031891 -17 8 C-17 7.34 -17 6.68 -17 6 C-16.1646875 5.85304688 -16.1646875 5.85304688 -15.3125 5.703125 C-11.05750955 4.86937687 -7.40711528 3.85120425 -3.5625 1.8125 C-2.386875 1.214375 -1.21125 0.61625 0 0 Z " fill="#B081CF" transform="translate(300,421)"/>
<path d="M0 0 C-0.78375 0.2475 -1.5675 0.495 -2.375 0.75 C-5.40937999 2.19494285 -5.67029725 3.05565819 -7 6 C-7.99 6.33 -8.98 6.66 -10 7 C-10 7.66 -10 8.32 -10 9 C-11.32 9 -12.64 9 -14 9 C-14.33 8.67 -14.66 8.34 -15 8 C-15.53625 8.33 -16.0725 8.66 -16.625 9 C-19.5391061 10.22699204 -21.86867708 10.14233286 -25 10 C-22.48633627 7.03869753 -19.8290311 5.9170783 -16.25 4.5 C-12.77099182 3.11176215 -9.33132001 1.70926716 -5.9375 0.125 C-3 -1 -3 -1 0 0 Z " fill="#A56ACA" transform="translate(117,79)"/>
<path d="M0 0 C1.65 0.33 3.3 0.66 5 1 C1.11016202 6.14462443 -3.39534445 10.71487418 -9 14 C-9.99 13.67 -10.98 13.34 -12 13 C-11.34 11.35 -10.68 9.7 -10 8 C-9.01 8.33 -8.02 8.66 -7 9 C-7 8.34 -7 7.68 -7 7 C-5.35 6.34 -3.7 5.68 -2 5 C-2 4.01 -2 3.02 -2 2 C-1.34 2 -0.68 2 0 2 C0 1.34 0 0.68 0 0 Z " fill="#925BBC" transform="translate(347,386)"/>
<path d="M0 0 C4.48085512 0.5676195 8.00031127 1.73087053 12.0625 3.6875 C13.18140625 4.21988281 14.3003125 4.75226562 15.453125 5.30078125 C16.62359375 5.86152344 17.7940625 6.42226563 19 7 C21.43370778 8.13339428 23.87310529 9.25383715 26.3125 10.375 C28.20833333 11.25 30.10416667 12.125 32 13 C29 14 29 14 26.65234375 13.109375 C25.75644531 12.66078125 24.86054688 12.2121875 23.9375 11.75 C19.4488435 9.60350904 15.07706581 8.03563431 10.30078125 6.6796875 C7.00902434 5.70724998 4.06126957 4.56320148 1 3 C0.67 2.01 0.34 1.02 0 0 Z " fill="#C099D8" transform="translate(275,21)"/>
<path d="M0 0 C2.475 0.495 2.475 0.495 5 1 C5 1.66 5 2.32 5 3 C5.99 3 6.98 3 8 3 C10.16612581 5.85928606 11.07132759 8.26747846 12 11.75 C12.33 12.8225 12.66 13.895 13 15 C13.99 15.33 14.98 15.66 16 16 C15.67 17.98 15.34 19.96 15 22 C12.8179857 19.19363353 10.9656169 16.32619123 9.1875 13.25 C6.42258294 8.57943835 3.3562615 4.26078587 0 0 Z " fill="#9A63C3" transform="translate(335,164)"/>
<path d="M0 0 C0.33 0.66 0.66 1.32 1 2 C-0.31931167 4.54332317 -1.68744206 6.94172628 -3.1875 9.375 C-3.58775391 10.04789062 -3.98800781 10.72078125 -4.40039062 11.4140625 C-6.61069195 15.05371589 -8.79995234 18.13099175 -12 21 C-11.25 14.25 -11.25 14.25 -9 12 C-8.7525 10.9790625 -8.7525 10.9790625 -8.5 9.9375 C-8.2525 8.9784375 -8.2525 8.9784375 -8 8 C-7.34 7.67 -6.68 7.34 -6 7 C-4.86649466 4.98330173 -4.86649466 4.98330173 -4 3 C-3.34 3 -2.68 3 -2 3 C-1.34 2.01 -0.68 1.02 0 0 Z " fill="#AC7FCB" transform="translate(407,317)"/>
<path d="M0 0 C0 4.08448049 -1.63845333 5.48289118 -4.125 8.6875 C-4.94924228 9.75909649 -5.77346094 10.83071114 -6.59765625 11.90234375 C-7.39042969 12.92457031 -8.18320312 13.94679688 -9 15 C-10.19096177 16.58073108 -11.37909055 18.163607 -12.5625 19.75 C-13.375 20.83333333 -14.1875 21.91666667 -15 23 C-15.66 22.67 -16.32 22.34 -17 22 C-16.53199289 17.94393835 -16.12046792 14.53411321 -14 11 C-13.34 11.33 -12.68 11.66 -12 12 C-12 12.66 -12 13.32 -12 14 C-7.45890328 9.73412126 -3.75264754 4.96387672 0 0 Z " fill="#BC8DD7" transform="translate(392,341)"/>
<path d="M0 0 C0.66 0.33 1.32 0.66 2 1 C1.27683594 1.63615234 1.27683594 1.63615234 0.5390625 2.28515625 C-3.82104256 6.33382524 -5.92107928 9.12587608 -7 15 C-7.66 15 -8.32 15 -9 15 C-9.144375 15.78375 -9.28875 16.5675 -9.4375 17.375 C-10 20 -10 20 -11 22 C-11.66 22 -12.32 22 -13 22 C-12.59958726 12.59030057 -6.64372069 6.16916921 0 0 Z " fill="#B382D0" transform="translate(84,93)"/>
<path d="M0 0 C3.97726955 1.32575652 5.35578449 3.86785731 7.625 7.1875 C8.03234375 7.75275391 8.4396875 8.31800781 8.859375 8.90039062 C11.40191143 12.57528186 12.60848961 15.55163192 13 20 C8.81340142 16.17225273 5.62179138 12.05392126 3 7 C3 6.34 3 5.68 3 5 C1.68 5.33 0.36 5.66 -1 6 C-1 5.34 -1 4.68 -1 4 C-0.34 4 0.32 4 1 4 C0.67 2.68 0.34 1.36 0 0 Z " fill="#AC7CCA" transform="translate(438,95)"/>
<path d="M0 0 C1 3 1 3 0.13549805 5.34423828 C-0.31784912 6.24384277 -0.77119629 7.14344727 -1.23828125 8.0703125 C-1.72876953 9.04871094 -2.21925781 10.02710938 -2.72460938 11.03515625 C-3.24861328 12.05480469 -3.77261719 13.07445312 -4.3125 14.125 C-4.82490234 15.15238281 -5.33730469 16.17976563 -5.86523438 17.23828125 C-9.72861842 24.86430921 -9.72861842 24.86430921 -12 26 C-11.02290658 20.46313728 -9.81216407 13.65849391 -5.5703125 9.6484375 C-3.82663583 7.81801075 -2.89502976 6.08954535 -1.8125 3.8125 C-1.46832031 3.09707031 -1.12414062 2.38164062 -0.76953125 1.64453125 C-0.51558594 1.10183594 -0.26164062 0.55914062 0 0 Z " fill="#671D97" transform="translate(420,288)"/>
<path d="M0 0 C0.66 0.33 1.32 0.66 2 1 C-2.95 5.95 -7.9 10.9 -13 16 C-13.66 15.34 -14.32 14.68 -15 14 C-14 11 -14 11 -12.40625 9.97265625 C-11.46265625 9.52212891 -11.46265625 9.52212891 -10.5 9.0625 C-8.59336686 8.09406334 -8.59336686 8.09406334 -7 7 C-6.63837971 5.67405895 -6.30271961 4.34061543 -6 3 C-3.0625 1.1875 -3.0625 1.1875 0 0 Z " fill="#66169D" transform="translate(368,368)"/>
<path d="M0 0 C-3.23475046 6.70055453 -3.23475046 6.70055453 -6.875 8.125 C-9.24399854 8.78831959 -11.60312378 9.44687472 -14 10 C-12.625 7.5 -12.625 7.5 -11 5 C-10.34 5 -9.68 5 -9 5 C-8.7525 4.360625 -8.505 3.72125 -8.25 3.0625 C-7 1 -7 1 -5.0625 0.25 C-3 0 -3 0 0 0 Z " fill="#6E11AA" transform="translate(349,230)"/>
<path d="M0 0 C0.66 0 1.32 0 2 0 C2.433125 0.886875 2.86625 1.77375 3.3125 2.6875 C4.86783644 5.9160038 4.86783644 5.9160038 6.625 8.375 C8.49345354 11.94204768 8.6608381 14.99788957 9 19 C4.79903499 16.89951749 2.90537621 11.11807117 1 7 C0.34354604 4.55397728 0.11293257 2.54098289 0 0 Z " fill="#A373C4" transform="translate(107,303)"/>
<path d="M0 0 C2.23117427 2.85827947 4.08026623 5.78943995 5.875 8.9375 C8.22307894 12.91162361 10.54803734 15.9541506 14 19 C13.67 19.66 13.34 20.32 13 21 C11.36828877 19.59106853 9.74486055 18.17254042 8.125 16.75 C7.22007812 15.96109375 6.31515625 15.1721875 5.3828125 14.359375 C3.25560007 12.25308597 2.09487694 10.74348474 1 8 C0.67 8 0.34 8 0 8 C0 5.36 0 2.72 0 0 Z " fill="#BD93D7" transform="translate(172,219)"/>
<path d="M0 0 C1.19625 0.309375 2.3925 0.61875 3.625 0.9375 C6.2058555 1.60205891 8.52008362 2.05098859 11.1875 2.3125 C14.95510183 3.23346934 16.43100529 5.16058479 19 8 C20.31175986 9.02813611 21.6369893 10.04084432 23 11 C19.34340782 10.40897 16.46628419 9.39840031 13.1875 7.6875 C12.32769531 7.2440625 11.46789062 6.800625 10.58203125 6.34375 C9.72996094 5.9003125 8.87789062 5.456875 8 5 C6.4598243 4.22619192 4.91830789 3.45504211 3.375 2.6875 C2.26125 2.130625 1.1475 1.57375 0 1 C0 0.67 0 0.34 0 0 Z " fill="#BE93D8" transform="translate(224,424)"/>
<path d="M0 0 C0 0.33 0 0.66 0 1 C-1.00417969 1.02578125 -2.00835937 1.0515625 -3.04296875 1.078125 C-11.36034123 1.3907544 -18.5205267 2.38137107 -26.42578125 5.2578125 C-29 6 -29 6 -32 5 C-31 3 -31 3 -29.19921875 2.1484375 C-19.59712382 -0.80835067 -9.9336488 -0.26269199 0 0 Z " fill="#6A219A" transform="translate(308,150)"/>
<path d="M0 0 C-2.43030784 1.53351528 -4.86805103 3.05183502 -7.3125 4.5625 C-8.00279297 5.00013672 -8.69308594 5.43777344 -9.40429688 5.88867188 C-10.07138672 6.29794922 -10.73847656 6.70722656 -11.42578125 7.12890625 C-12.34484253 7.70233765 -12.34484253 7.70233765 -13.2824707 8.28735352 C-15 9 -15 9 -18 8 C-17.34 7.67 -16.68 7.34 -16 7 C-16.66 6.01 -17.32 5.02 -18 4 C-15.69 4 -13.38 4 -11 4 C-10.67 2.68 -10.34 1.36 -10 0 C-2.25 -1.125 -2.25 -1.125 0 0 Z " fill="#B88CD3" transform="translate(320,412)"/>
<path d="M0 0 C0.66 0.33 1.32 0.66 2 1 C2 1.33 2 1.66 2 2 C2.99 1.67 3.98 1.34 5 1 C5.33 1.99 5.66 2.98 6 4 C5.21625 4.763125 4.4325 5.52625 3.625 6.3125 C0.92742283 8.90891805 0.92742283 8.90891805 -1 12 C-1 11.34 -1 10.68 -1 10 C-1.66 9.67 -2.32 9.34 -3 9 C-2.69181644 7.68647977 -2.37832335 6.37420428 -2.0625 5.0625 C-1.88847656 4.33160156 -1.71445313 3.60070312 -1.53515625 2.84765625 C-1 1 -1 1 0 0 Z " fill="#7A20B2" transform="translate(87,91)"/>
<path d="M0 0 C1.32 0.66 2.64 1.32 4 2 C-1.75 7 -1.75 7 -4 7 C-4.226875 7.5775 -4.45375 8.155 -4.6875 8.75 C-6.33038023 11.5663661 -8.39533227 13.08077114 -11 15 C-10.01469421 12.80201017 -9.18695263 11.17947452 -7.4375 9.5 C-5.83822392 8.10248828 -5.83822392 8.10248828 -5.625 6.0625 C-4.69064698 2.97913505 -2.54773253 1.8291413 0 0 Z " fill="#BA91D7" transform="translate(190,157)"/>
<path d="M0 0 C6.02770138 0.47587116 10.76678289 3.19722957 16 6 C15.01 6.33 14.02 6.66 13 7 C12.67 7.66 12.34 8.32 12 9 C12 8.01 12 7.02 12 6 C11.01 6.33 10.02 6.66 9 7 C6.73828125 6.00390625 6.73828125 6.00390625 4.3125 4.5625 C3.50425781 4.08941406 2.69601562 3.61632813 1.86328125 3.12890625 C1.24839844 2.75636719 0.63351562 2.38382813 0 2 C0 1.34 0 0.68 0 0 Z " fill="#AB79C9" transform="translate(322,42)"/>
<path d="M0 0 C1 2 1 2 0.5 4.875 C-1.56078712 9.1683065 -3.76756155 9.96215926 -8 12 C-7.49572053 7.58755464 -5.98672249 5.25025683 -3 2 C-2.01 1.34 -1.02 0.68 0 0 Z " fill="#8D4ABC" transform="translate(334,240)"/>
<path d="M0 0 C2 2 2 2 3 5 C3.99 5.66 4.98 6.32 6 7 C6 7.66 6 8.32 6 9 C6.66 9 7.32 9 8 9 C8.33 10.65 8.66 12.3 9 14 C6.75 13.5625 6.75 13.5625 4 12 C1.69732552 8.1744705 0 4.49189194 0 0 Z " fill="#A975CA" transform="translate(99,288)"/>
<path d="M0 0 C2.00993705 3.01490557 2.72623341 5.2149927 3.625 8.6875 C3.88539062 9.68136719 4.14578125 10.67523438 4.4140625 11.69921875 C4.60742188 12.45847656 4.80078125 13.21773438 5 14 C5.66 14 6.32 14 7 14 C7.33 16.97 7.66 19.94 8 23 C5.04912342 20.04912342 4.22668638 16.51837418 2.875 12.625 C2.59785156 11.85671875 2.32070312 11.0884375 2.03515625 10.296875 C1.77347656 9.55179687 1.51179688 8.80671875 1.2421875 8.0390625 C1.0035498 7.36053223 0.76491211 6.68200195 0.51904297 5.98291016 C0 4 0 4 0 0 Z " fill="#D4B1E6" transform="translate(85,250)"/>
<path d="M0 0 C5.85272256 0.45020943 10.08220119 3.03839227 15 6 C14.01 6.66 13.02 7.32 12 8 C8.46924708 7.02904295 6.44369827 5.65619377 4 3 C2.68036291 1.98199424 1.34990354 0.97751635 0 0 Z " fill="#BD92D7" transform="translate(307,35)"/>
<path d="M0 0 C0.66 0 1.32 0 2 0 C2 0.66 2 1.32 2 2 C2.66 2 3.32 2 4 2 C6.95303159 5.07115285 7.52651586 7.8333396 8 12 C2.91097912 8.69901348 1.76734937 5.58110327 0 0 Z " fill="#A06FC4" transform="translate(133,346)"/>
<path d="M0 0 C0.83449189 3.33796756 1.46019653 6.60694964 2 10 C-0.66666667 10 -3.33333333 10 -6 10 C-4.02 6.7 -2.04 3.4 0 0 Z " fill="#6A1AA0" transform="translate(349,221)"/>
<path d="M0 0 C0.66 0 1.32 0 2 0 C2 0.66 2 1.32 2 2 C2.66 2 3.32 2 4 2 C3.979375 2.969375 3.95875 3.93875 3.9375 4.9375 C3.64381501 7.87465895 3.64381501 7.87465895 5 9 C5.04092937 11.33297433 5.04241723 13.66705225 5 16 C3.13389074 13.20083611 2.31214617 11.18061731 1.375 8 C1.11460938 7.13375 0.85421875 6.2675 0.5859375 5.375 C0 3 0 3 0 0 Z " fill="#6C219D" transform="translate(82,237)"/>
<path d="M0 0 C0.99 0 1.98 0 3 0 C2.67 1.98 2.34 3.96 2 6 C2.66 6 3.32 6 4 6 C4 7.32 4 8.64 4 10 C4.66 10 5.32 10 6 10 C6 10.66 6 11.32 6 12 C3 11 3 11 1.796875 9.2578125 C1.45140625 8.55398438 1.1059375 7.85015625 0.75 7.125 C0.39421875 6.42632812 0.0384375 5.72765625 -0.328125 5.0078125 C-1 3 -1 3 0 0 Z " fill="#651A9E" transform="translate(115,314)"/>
<path d="M0 0 C6.96050253 0.38669459 11.9394075 2.63438409 18 6 C14.42859705 7.19046765 13.93918301 6.77683729 10.6875 5.1875 C7.17839826 3.53042418 3.7165953 2.14356779 0 1 C0 0.67 0 0.34 0 0 Z " fill="#A46EC7" transform="translate(304,149)"/>
<path d="M0 0 C0.99 0 1.98 0 3 0 C2.82374165 2.37948772 2.30280227 3.70225849 0.59765625 5.37890625 C-0.90649092 6.62115486 -2.45129851 7.81376056 -4 9 C-4 7.35 -4 5.7 -4 4 C-3.01 4 -2.02 4 -1 4 C-0.67 2.68 -0.34 1.36 0 0 Z " fill="#6B1CA1" transform="translate(182,162)"/>
<path d="M0 0 C1.32 0 2.64 0 4 0 C4 0.66 4 1.32 4 2 C5.32 2 6.64 2 8 2 C8.268125 2.598125 8.53625 3.19625 8.8125 3.8125 C9.98493467 5.97224808 11.19369282 7.35790256 13 9 C8.89160936 7.54997977 5.49655387 5.6020866 2 3 C2 2.34 2 1.68 2 1 C1.34 0.67 0.68 0.34 0 0 Z " fill="#C096D8" transform="translate(184,399)"/>
<path d="M0 0 C0.36923077 5.53846154 0.36923077 5.53846154 -1.5 7.875 C-2.2425 8.431875 -2.2425 8.431875 -3 9 C-2.67 7.68 -2.34 6.36 -2 5 C-2.99 5.33 -3.98 5.66 -5 6 C-4.625 3.5625 -4.625 3.5625 -4 1 C-2 0 -2 0 0 0 Z " fill="#6A14A7" transform="translate(407,312)"/>
<path d="M0 0 C0.33 0.99 0.66 1.98 1 3 C1.66 3 2.32 3 3 3 C3.12375 3.94875 3.2475 4.8975 3.375 5.875 C3.71687177 9.08667191 3.71687177 9.08667191 6 11 C6.125 13.625 6.125 13.625 6 16 C3.09973937 14.54986969 2.95045604 12.69479373 1.875 9.6875 C1.52179688 8.72199219 1.16859375 7.75648438 0.8046875 6.76171875 C0 4 0 4 0 0 Z " fill="#661A9A" transform="translate(92,266)"/>
<path d="M0 0 C-2.74323062 3.77194211 -6.6910943 4.12815916 -11 5 C-12.485 5.309375 -12.485 5.309375 -14 5.625 C-14.66 5.74875 -15.32 5.8725 -16 6 C-11.78590175 2.33556674 -5.52473958 -1.84157986 0 0 Z " fill="#CFABE3" transform="translate(133,72)"/>
<path d="M0 0 C1.32 0.33 2.64 0.66 4 1 C4.75 2.75 4.75 2.75 5 5 C3.0625 7.25 3.0625 7.25 1 9 C0.67 6.03 0.34 3.06 0 0 Z " fill="#6914A1" transform="translate(386,338)"/>
<path d="M0 0 C3.13130907 -0.04683582 5.99173557 0.08871852 9 1 C11.03880834 3.22610045 11.8137378 5.16328604 13 8 C8.9869045 6.62408154 6.2333422 4.72281449 3 2 C2.01 1.34 1.02 0.68 0 0 Z " fill="#BE94DB" transform="translate(322,156)"/>
<path d="M0 0 C6.67655321 5.07278586 6.67655321 5.07278586 7.9375 8.6875 C7.9853462 10.45780943 8 12.22904412 8 14 C6.84669053 12.42210402 5.70262073 10.8374518 4.5625 9.25 C3.92441406 8.36828125 3.28632812 7.4865625 2.62890625 6.578125 C1.1724919 4.27300875 0.44068179 2.65650428 0 0 Z " fill="#C8A2E1" transform="translate(116,322)"/>
<path d="M0 0 C2 2 4 4 6 6 C6.66 6.33 7.32 6.66 8 7 C7.67 8.98 7.34 10.96 7 13 C0 4.25 0 4.25 0 0 Z " fill="#BA8AD6" transform="translate(343,173)"/>
<path d="M0 0 C-0.66 0 -1.32 0 -2 0 C-2.66 1.32 -3.32 2.64 -4 4 C-6.31 3.67 -8.62 3.34 -11 3 C-7.68381684 -0.31618316 -4.50821267 -1.6697084 0 0 Z " fill="#681BA5" transform="translate(185,51)"/>
<path d="M0 0 C2.97 0.495 2.97 0.495 6 1 C3.47043472 4.0916909 0.77545388 4.90931332 -3 6 C-3.33 5.34 -3.66 4.68 -4 4 C-3.01 3.34 -2.02 2.68 -1 2 C-0.67 1.34 -0.34 0.68 0 0 Z " fill="#661599" transform="translate(299,417)"/>
<path d="M0 0 C1.65 0 3.3 0 5 0 C5.33 0.99 5.66 1.98 6 3 C6.66 3 7.32 3 8 3 C8 3.66 8 4.32 8 5 C9.32 5.66 10.64 6.32 12 7 C7.0682659 6.55166054 3.6807076 4.13973905 0 1 C0 0.67 0 0.34 0 0 Z " fill="#BA90D4" transform="translate(207,414)"/>
<path d="M0 0 C2.00461299 0.65266469 4.00379834 1.32204472 6 2 C6.928125 2.309375 7.85625 2.61875 8.8125 2.9375 C9.534375 3.288125 10.25625 3.63875 11 4 C11.33 4.99 11.66 5.98 12 7 C10.68 7 9.36 7 8 7 C8 6.34 8 5.68 8 5 C7.236875 4.9175 6.47375 4.835 5.6875 4.75 C2.47626739 3.85384206 1.70625501 2.78388975 0 0 Z " fill="#6814A1" transform="translate(332,160)"/>
<path d="M0 0 C-1.55851755 0.82011312 -3.12201716 1.63076213 -4.6875 2.4375 C-5.55761719 2.88996094 -6.42773438 3.34242187 -7.32421875 3.80859375 C-9.90998264 4.95991928 -12.21356528 5.56320753 -15 6 C-12.74109621 3.48045346 -10.582103 2.12667267 -7.5 0.75 C-6.7265625 0.39421875 -5.953125 0.0384375 -5.15625 -0.328125 C-3 -1 -3 -1 0 0 Z " fill="#D2B2E5" transform="translate(165,58)"/>
<path d="M0 0 C0 3 0 3 -2.1875 5.25 C-5 7 -5 7 -7.8125 6.75 C-8.534375 6.5025 -9.25625 6.255 -10 6 C-8.37861617 2.75723234 -5.24889406 2.31095725 -2 1 C-1.34 0.67 -0.68 0.34 0 0 Z " fill="#6716A0" transform="translate(210,37)"/>
<path d="M0 0 C-0.99 1.485 -0.99 1.485 -2 3 C-5.625 3.6875 -5.625 3.6875 -9 4 C-8 1 -8 1 -5.625 -0.25 C-3 -1 -3 -1 0 0 Z " fill="#8B4EB1" transform="translate(324,408)"/>
<path d="M0 0 C2.42581871 2.42581871 2.96355664 4.07433869 3.09765625 7.48046875 C3.08605469 8.37378906 3.07445313 9.26710937 3.0625 10.1875 C3.05347656 11.08855469 3.04445313 11.98960937 3.03515625 12.91796875 C3.02355469 13.60503906 3.01195313 14.29210937 3 15 C2.67 15 2.34 15 2 15 C0.73694665 9.92523206 -0.27036084 5.27203646 0 0 Z " fill="#CAA2E0" transform="translate(74,204)"/>
<path d="M0 0 C0.33 0.99 0.66 1.98 1 3 C-2.3 3.33 -5.6 3.66 -9 4 C-5.73092573 0.73092573 -4.54139841 0 0 0 Z " fill="#B789D4" transform="translate(101,85)"/>
<path d="M0 0 C0 3.19219704 -0.23605791 4.39608549 -2 7 C-4.625 8.25 -4.625 8.25 -7 9 C-5.625 6.5 -5.625 6.5 -4 4 C-3.34 4 -2.68 4 -2 4 C-1.34 2.68 -0.68 1.36 0 0 Z " fill="#B88DD6" transform="translate(342,231)"/>
<path d="M0 0 C3.73487777 0.4979837 5.81237635 0.87491756 9 3 C8.67 3.99 8.34 4.98 8 6 C6.68 5.34 5.36 4.68 4 4 C4 3.34 4 2.68 4 2 C2.68 1.67 1.36 1.34 0 1 C0 0.67 0 0.34 0 0 Z " fill="#67189D" transform="translate(421,87)"/>
<path d="M0 0 C2.97 0.99 5.94 1.98 9 3 C8.34 3.66 7.68 4.32 7 5 C4.38419521 4.6730244 2.35921863 4.17960932 0 3 C0 2.01 0 1.02 0 0 Z " fill="#6A1BA2" transform="translate(336,49)"/>
<path d="M0 0 C1.32 0.66 2.64 1.32 4 2 C3.1875 4.4375 3.1875 4.4375 2 7 C1.01 7.33 0.02 7.66 -1 8 C-0.67 5.36 -0.34 2.72 0 0 Z " fill="#8342B0" transform="translate(392,334)"/>
<path d="M0 0 C3.16115776 1.36983503 3.9927092 1.9890638 6 5 C5.2575 4.814375 4.515 4.62875 3.75 4.4375 C1.05009037 4.00796892 -0.44631077 4.14877026 -3 5 C-1.125 1.125 -1.125 1.125 0 0 Z " fill="#67149F" transform="translate(201,257)"/>
<path d="M0 0 C1.8125 1.3125 1.8125 1.3125 2.8125 4.3125 C-0.1575 3.3225 -3.1275 2.3325 -6.1875 1.3125 C-2.1875 -0.6875 -2.1875 -0.6875 0 0 Z " fill="#B07FCD" transform="translate(245.1875,154.6875)"/>
<path d="M0 0 C2.31 0.66 4.62 1.32 7 2 C6.67 2.66 6.34 3.32 6 4 C3.69 4 1.38 4 -1 4 C-0.67 2.68 -0.34 1.36 0 0 Z " fill="#6A19A1" transform="translate(370,64)"/>
<path d="M0 0 C3.42353587 1.21480305 5.01180815 3.01771223 7 6 C2.25 5.125 2.25 5.125 0 4 C0 3.34 0 2.68 0 2 C-0.66 1.67 -1.32 1.34 -2 1 C-1.34 0.67 -0.68 0.34 0 0 Z " fill="#64169C" transform="translate(215,415)"/>
<path d="M0 0 C1.65 0 3.3 0 5 0 C5.33 0.99 5.66 1.98 6 3 C7.99665314 4.68538601 7.99665314 4.68538601 10 6 C5.16743695 5.58578031 3.17320782 3.53586014 0 0 Z " fill="#661B99" transform="translate(192,403)"/>
<path d="M0 0 C1.65 0.33 3.3 0.66 5 1 C3.35 2.98 1.7 4.96 0 7 C-0.66 6.67 -1.32 6.34 -2 6 C-1.01 5.01 -0.02 4.02 1 3 C0.67 2.01 0.34 1.02 0 0 Z " fill="#B68AD4" transform="translate(347,386)"/>
<path d="M0 0 C2.97 0.495 2.97 0.495 6 1 C5.67 1.99 5.34 2.98 5 4 C3.35 4.33 1.7 4.66 0 5 C0.66 4.34 1.32 3.68 2 3 C1.34 2.01 0.68 1.02 0 0 Z " fill="#A570CB" transform="translate(302,416)"/>
<path d="M0 0 C0.66 0 1.32 0 2 0 C2.33 0.66 2.66 1.32 3 2 C3.99 2 4.98 2 6 2 C6 3.65 6 5.3 6 7 C2.58841744 5.86280581 1.88145399 4.95657056 0 2 C0 1.34 0 0.68 0 0 Z " fill="#62189E" transform="translate(145,360)"/>
<path d="M0 0 C0.66 0 1.32 0 2 0 C0.63055898 2.94956528 -0.87830409 5.52468811 -3 8 C-3.66 8 -4.32 8 -5 8 C-4.67 7.01 -4.34 6.02 -4 5 C-3.34 5 -2.68 5 -2 5 C-2 4.01 -2 3.02 -2 2 C-1.34 2 -0.68 2 0 2 C0 1.34 0 0.68 0 0 Z " fill="#672199" transform="translate(385,347)"/>
<path d="M0 0 C2.15377564 2.62198774 3.40072174 4.64404172 4 8 C2.68 8 1.36 8 0 8 C0 5.36 0 2.72 0 0 Z " fill="#A877C6" transform="translate(172,219)"/>
<path d="M0 0 C4.21912747 0.4794463 6.79663178 1.16625119 10 4 C7.36 4 4.72 4 2 4 C2 3.34 2 2.68 2 2 C1.34 1.34 0.68 0.68 0 0 Z " fill="#681799" transform="translate(350,56)"/>
<path d="M0 0 C0.66 0 1.32 0 2 0 C2 2.66666667 2 5.33333333 2 8 C0.4375 6.8125 0.4375 6.8125 -1 5 C-0.6875 2.3125 -0.6875 2.3125 0 0 Z " fill="#6715A2" transform="translate(141,351)"/>
<path d="M0 0 C0.66 0.33 1.32 0.66 2 1 C-0.97 3.475 -0.97 3.475 -4 6 C-4.33 4.68 -4.66 3.36 -5 2 C-2.625 0.9375 -2.625 0.9375 0 0 Z " fill="#621B97" transform="translate(264,163)"/>
<path d="M0 0 C1.5 1.125 1.5 1.125 3 3 C3.1875 6.1875 3.1875 6.1875 3 9 C2.34 8.67 1.68 8.34 1 8 C0.40644386 5.35139573 0.25790731 2.70802678 0 0 Z " fill="#6A2697" transform="translate(448,112)"/>
</svg>
